<?xml version="1.0" standalone="no"?>
<!DOCTYPE svg PUBLIC "-//W3C//DTD SVG 20010904//EN"
 "http://www.w3.org/TR/2001/REC-SVG-20010904/DTD/svg10.dtd">
<svg version="1.0" xmlns="http://www.w3.org/2000/svg"
 width="300.000000pt" height="282.000000pt" viewBox="0 0 300.000000 282.000000"
 preserveAspectRatio="xMidYMid meet">
<metadata>
Created by potrace 1.10, written by Peter Selinger 2001-2011
</metadata>
<g transform="translate(0.000000,282.000000) scale(0.100000,-0.100000)"
fill="#000000" stroke="none">
<path d="M2333 2534 c-75 -36 -113 -77 -113 -120 0 -46 -20 -83 -80 -150 -28
-30 -50 -60 -50 -67 0 -6 8 2 18 18 10 17 30 36 45 44 14 7 28 21 31 30 12 34
47 86 59 87 46 3 102 32 132 68 87 109 70 144 -42 90z m80 4 c5 -15 -48 -93
-82 -119 -27 -22 -55 -25 -48 -6 2 6 13 11 23 9 18 -2 18 -2 0 9 -16 10 -23 8
-42 -14 -26 -30 -32 -28 -26 12 5 37 22 52 97 91 68 34 72 35 78 18z"/>
<path d="M2353 2489 c-26 -23 -50 -43 -52 -45 -2 -2 0 -4 5 -4 11 0 112 89
102 90 -4 0 -28 -19 -55 -41z"/>
<path d="M2111 2507 c-5 -13 -21 -34 -36 -45 -14 -11 -30 -34 -36 -51 -5 -17
-13 -44 -18 -60 -7 -22 -5 -35 5 -48 13 -17 14 -16 8 8 -8 38 22 117 56 149
37 34 38 24 4 -42 -14 -28 -32 -72 -40 -97 -17 -55 -19 -125 -3 -116 5 4 9 17
8 28 -2 37 1 47 14 47 8 0 23 10 34 23 39 42 51 79 49 152 -1 58 -4 70 -18 73
-12 2 -21 -5 -27 -21z m34 -74 c-3 -35 -9 -71 -14 -81 -14 -27 -60 -66 -68
-58 -4 3 9 20 28 36 19 16 30 29 25 30 -5 0 -15 -8 -22 -17 -7 -10 -15 -15
-19 -11 -9 9 23 68 41 75 11 4 12 8 4 13 -9 6 -9 13 0 30 6 12 9 28 6 37 -8
20 4 39 15 22 4 -7 6 -42 4 -76z"/>
<path d="M976 2380 c-22 -54 -20 -106 6 -160 11 -25 20 -56 20 -70 -1 -24 -1
-24 15 5 31 56 18 265 -17 265 -4 0 -15 -18 -24 -40z m33 -113 c4 -4 6 18 5
50 -3 57 -3 57 7 18 6 -22 7 -64 4 -94 -6 -46 -9 -52 -21 -40 -27 27 -35 117
-17 179 6 18 9 8 11 -40 2 -36 7 -69 11 -73z"/>
<path d="M1901 2360 c-11 -19 -24 -50 -27 -68 -9 -48 0 -133 18 -169 16 -32
15 -36 -29 -155 -25 -68 -49 -127 -53 -131 -4 -5 -45 27 -91 72 -46 44 -84 79
-86 77 -6 -6 112 -127 142 -146 l33 -20 -18 -48 c-185 -495 -320 -862 -320
-873 0 -24 -16 4 -40 71 -13 36 -23 75 -22 88 1 13 -2 20 -8 17 -5 -3 -12 5
-15 17 -5 18 5 34 45 76 27 28 50 56 50 61 0 5 -26 -5 -57 -24 -61 -35 -135
-104 -127 -117 3 -5 2 -8 -3 -7 -4 1 -11 1 -15 0 -8 -1 24 -108 45 -146 l16
-30 1 26 c0 36 19 91 38 109 13 13 14 13 9 -2 -4 -10 -2 -18 3 -18 17 0 11
-36 -15 -84 -29 -55 -29 -56 -10 -82 13 -18 14 -17 10 13 -2 19 2 36 11 44 8
6 14 19 14 28 0 13 2 13 9 2 10 -16 2 -53 -10 -46 -8 5 -2 -41 7 -57 3 -4 -2
-5 -10 -2 -19 7 -21 -7 -4 -24 6 -6 9 -14 6 -17 -6 -7 -58 72 -84 127 -12 26
-24 38 -38 38 -30 0 -50 15 -41 30 5 8 4 11 -3 6 -6 -3 -21 7 -34 23 -19 24
-83 61 -106 61 -12 0 64 -73 99 -95 24 -16 39 -36 49 -65 10 -32 23 -46 52
-61 20 -10 53 -33 72 -50 19 -16 38 -30 43 -29 4 1 9 -3 11 -9 10 -31 -105 25
-137 66 -15 19 -19 21 -12 6 16 -32 15 -33 -26 -33 l-38 -1 30 -25 c17 -13 40
-27 52 -30 15 -4 29 -26 50 -82 21 -58 34 -78 49 -80 16 -2 23 7 36 45 9 26
67 186 130 355 79 212 112 310 104 318 -7 7 -5 10 5 10 8 0 21 17 28 38 12 33
130 353 152 411 8 19 12 21 24 11 18 -15 20 1 3 18 -8 8 -6 25 10 69 11 32 20
78 20 103 -1 55 10 93 24 84 6 -4 8 -2 4 4 -3 6 0 30 9 54 18 51 20 82 5 58
-7 -10 -9 15 -9 80 l1 95 14 -65 13 -65 -4 63 c-3 34 -11 75 -19 89 l-14 27
-21 -34z m21 -116 c0 -64 -4 -120 -10 -126 -15 -15 -36 103 -27 158 7 49 25
97 33 90 2 -3 4 -57 4 -122z m-82 -422 c-10 -4 -9 -6 1 -13 9 -6 10 -9 2 -9
-16 0 -26 17 -14 25 6 3 8 13 5 23 -4 13 -3 12 7 -2 10 -16 10 -21 -1 -24z
m-110 -299 c-1 -18 -18 -35 -24 -24 -4 6 -2 11 4 11 6 0 8 5 5 10 -3 6 -1 10
4 10 6 0 11 -3 11 -7z m-20 -53 c0 -5 -5 -10 -11 -10 -5 0 -7 5 -4 10 3 6 8
10 11 10 2 0 4 -4 4 -10z m-3 -26 c-3 -3 -12 -4 -19 -1 -8 3 -5 6 6 6 11 1 17
-2 13 -5z m-14 -29 c-3 -9 -8 -14 -10 -11 -3 3 -2 9 2 15 9 16 15 13 8 -4z
m-42 -78 c-10 -9 -11 -8 -5 6 3 10 9 15 12 12 3 -3 0 -11 -7 -18z m-288 -214
c8 -8 -23 -32 -42 -33 -11 0 -10 5 4 20 19 21 28 24 38 13z m5 -52 c2 -1 -6
-14 -18 -31 -12 -16 -19 -34 -15 -39 3 -5 1 -12 -4 -16 -6 -3 -15 3 -20 14
-27 50 2 85 57 72z m-69 -157 c6 -15 7 -25 1 -29 -6 -4 -10 -1 -10 5 0 6 -5 8
-12 4 -7 -4 -8 -3 -4 5 4 6 3 18 -3 25 -8 9 -7 13 3 13 8 0 19 -11 25 -23z
m149 -26 c13 -13 16 -76 6 -125 -5 -27 -9 -29 -59 -31 -52 -2 -85 13 -85 39 0
6 -4 7 -10 4 -5 -3 -10 2 -10 12 0 15 -2 16 -10 3 -6 -9 -10 -10 -10 -3 0 19
17 24 30 8 21 -25 101 -57 115 -45 6 5 16 6 20 2 5 -4 5 2 1 12 -4 11 -9 46
-13 78 -6 58 1 70 25 46z m-38 -188 c9 -17 8 -20 -10 -20 -11 0 -20 -7 -20
-15 0 -25 -17 -17 -22 10 -4 17 0 29 11 35 23 14 29 12 41 -10z m-6 -45 c-4
-8 -8 -15 -10 -15 -2 0 -4 7 -4 15 0 8 4 15 10 15 5 0 7 -7 4 -15z"/>
<path d="M2291 2345 c-56 -31 -151 -123 -151 -147 0 -15 -9 -18 -55 -18 -48 0
-55 3 -55 19 0 20 -24 51 -40 51 -10 0 -30 -55 -30 -81 0 -35 18 -19 25 21 6
34 9 38 21 26 16 -16 19 -30 5 -22 -12 8 -19 -36 -10 -60 6 -15 8 -12 8 14 1
17 5 32 11 32 10 0 12 -11 12 -99 1 -43 3 -50 11 -35 6 11 11 44 11 74 0 30 2
47 4 37 4 -18 4 -18 17 0 17 23 -17 -110 -39 -152 -9 -17 -16 -36 -16 -43 0
-7 -4 -10 -10 -7 -6 3 -7 -1 -4 -9 3 -9 10 -13 15 -10 5 3 9 -2 9 -11 0 -10
-5 -13 -12 -9 -7 4 -8 3 -4 -4 4 -6 -7 -40 -24 -76 -16 -36 -30 -77 -30 -92 0
-15 -3 -25 -6 -22 -3 3 -2 34 2 68 4 34 10 56 14 50 9 -14 15 0 26 65 6 35 5
38 -8 28 -12 -11 -14 -7 -14 27 0 21 4 36 8 34 4 -3 4 6 -1 19 -6 14 -8 28 -5
31 2 3 0 3 -5 -1 -16 -13 -32 -162 -30 -283 0 -63 0 -119 -1 -125 -1 -5 -1
-14 0 -20 1 -5 1 -26 0 -45 -1 -25 5 -42 19 -54 11 -10 25 -33 31 -52 l11 -33
29 32 c15 18 32 28 36 24 11 -11 -8 -40 -34 -52 -12 -5 -23 -19 -23 -30 -1
-20 -1 -20 -6 0 -3 11 -13 29 -23 40 -10 11 -28 40 -41 65 -37 73 -100 161
-113 157 -12 -4 -29 -77 -28 -122 3 -111 34 -190 79 -201 34 -9 63 -71 63
-135 l0 -52 -49 50 c-50 53 -99 83 -163 101 -50 14 -61 -4 -22 -32 16 -11 63
-53 104 -93 42 -39 88 -81 103 -93 18 -14 27 -31 27 -50 0 -21 7 -30 29 -40
30 -12 71 -50 55 -50 -5 0 4 -8 20 -18 17 -10 35 -33 41 -52 10 -30 9 -42 -8
-79 -12 -27 -17 -54 -13 -72 6 -31 -6 -38 -29 -15 -17 16 -4 85 25 132 19 30
19 32 2 48 -10 9 -22 13 -27 9 -4 -5 -5 -2 0 6 5 10 3 12 -11 7 -22 -7 -69 14
-69 31 0 7 -6 18 -12 24 -9 9 -13 9 -13 2 0 -6 -14 2 -30 19 -37 36 -34 47 3
17 21 -15 27 -17 27 -6 0 13 -90 60 -99 52 -6 -7 68 -94 90 -105 16 -9 19 -22
19 -74 0 -61 1 -64 35 -87 19 -13 35 -28 36 -34 1 -5 2 -15 3 -21 1 -12 72
-94 81 -94 11 0 4 31 -8 36 -31 11 11 186 47 200 22 8 65 116 81 200 8 41 24
94 35 117 l20 42 -5 -68 c-2 -39 -13 -87 -26 -115 -12 -26 -29 -78 -39 -117
-13 -51 -21 -69 -32 -67 -11 2 -17 -10 -21 -42 -4 -24 -13 -61 -20 -82 -27
-74 -27 -79 -2 -29 13 28 25 60 25 71 0 26 35 72 46 61 4 -4 3 -25 -3 -47 -5
-22 -6 -37 -1 -34 15 10 58 106 51 117 -3 6 -1 7 5 3 6 -3 23 16 41 47 40 70
69 101 122 127 78 40 128 81 139 116 6 18 24 49 41 70 41 51 39 68 -8 61 -86
-14 -197 -125 -227 -228 -15 -50 -96 -174 -121 -186 -11 -5 -19 -15 -17 -22 1
-7 -2 -10 -7 -7 -16 10 -5 52 22 88 30 39 71 127 81 175 5 20 21 42 44 59 46
35 57 48 87 105 23 45 60 167 52 175 -2 3 -12 -24 -22 -58 -19 -70 -68 -168
-95 -193 -9 -8 -26 -17 -37 -19 -17 -4 -18 0 -12 58 6 62 34 136 50 136 5 0
29 27 54 61 42 57 64 68 29 14 -9 -14 -12 -25 -6 -25 13 0 36 56 27 69 -3 6
-4 11 0 11 3 0 10 -10 15 -22 8 -21 9 -20 9 10 1 42 -12 41 -46 -5 -15 -20
-50 -60 -76 -89 -56 -60 -65 -87 -77 -212 -7 -77 -15 -106 -46 -170 -22 -47
-39 -70 -41 -60 -2 9 8 40 23 70 29 56 26 33 50 441 4 69 2 97 -12 134 -10 25
-20 41 -22 35 -2 -6 4 -25 13 -43 14 -27 16 -49 10 -142 -6 -81 -10 -106 -17
-92 -6 10 -7 42 -4 77 5 40 3 64 -5 74 -6 8 -9 23 -6 34 3 11 1 20 -3 20 -5 0
-10 -14 -12 -32 -2 -17 -9 -33 -16 -36 -11 -3 -12 0 -3 16 6 11 11 29 10 39 0
10 -7 0 -15 -22 -8 -22 -26 -61 -40 -87 -28 -53 -23 -59 20 -24 18 15 26 28
21 36 -5 8 -4 11 3 6 6 -3 18 4 26 16 9 12 16 17 16 10 0 -18 -80 -102 -97
-102 -13 0 -13 -3 -3 -15 9 -11 10 -19 3 -26 -8 -8 -13 -5 -18 10 -3 12 -10
19 -15 16 -5 -3 -11 -1 -15 5 -3 5 3 15 15 22 16 10 20 23 20 65 0 46 4 56 34
85 48 48 90 118 77 131 -5 5 -7 30 -4 58 5 41 3 49 -10 49 -16 0 -97 -77 -97
-92 0 -4 -18 -11 -39 -14 -25 -4 -43 -14 -50 -28 -11 -19 -11 -19 -6 6 4 20 0
30 -14 38 -17 9 -19 7 -17 -13 1 -12 9 -32 16 -44 l14 -21 42 30 c25 18 47 27
55 23 7 -5 10 -4 6 2 -4 6 3 13 16 17 12 3 30 18 39 33 11 17 18 22 19 13 0
-8 2 -31 3 -50 2 -24 -5 -45 -22 -68 -13 -18 -26 -31 -29 -28 -3 3 0 13 8 23
9 11 10 14 2 9 -7 -4 -13 -2 -13 3 0 16 -16 13 -35 -5 -8 -9 -22 -13 -31 -10
-11 4 -14 1 -9 -13 3 -11 1 -22 -5 -26 -5 -3 -10 -13 -10 -21 0 -21 33 2 55
38 9 16 20 27 23 24 7 -7 -35 -67 -55 -79 -11 -7 -14 -32 -13 -100 2 -61 -1
-91 -9 -90 -5 2 -8 -4 -5 -12 8 -19 26 -15 42 10 11 17 13 17 8 2 -3 -10 -6
-25 -6 -34 0 -10 -6 -13 -16 -9 -13 5 -15 1 -9 -21 4 -16 10 -52 14 -81 10
-71 31 -92 31 -32 1 44 1 44 15 20 8 -15 10 -29 4 -36 -5 -6 -6 -14 -2 -17 3
-4 0 -13 -7 -22 -10 -12 -10 -15 3 -15 15 0 31 26 22 39 -2 4 3 8 11 8 11 0
14 -6 9 -21 -3 -12 -8 -39 -10 -60 -3 -22 -9 -44 -14 -49 -5 -5 -6 3 -3 19 4
20 2 25 -8 19 -9 -6 -10 -1 -5 16 6 20 5 22 -6 11 -11 -10 -11 -16 -1 -32 14
-22 -3 -74 -21 -63 -6 4 -7 -4 -3 -20 6 -27 -20 -97 -37 -97 -18 0 -2 164 20
208 20 42 20 43 2 67 -14 17 -21 45 -24 96 -4 86 -19 108 -34 53 -15 -53 -13
-65 4 -29 7 17 14 23 14 14 1 -9 -11 -33 -25 -54 -21 -32 -24 -45 -18 -74 4
-20 6 -40 5 -46 -5 -21 27 21 34 45 6 23 6 23 -7 7 -13 -17 -14 -17 -16 6 -1
14 5 30 13 37 11 9 15 5 21 -27 4 -21 11 -41 16 -44 5 -3 6 -13 2 -23 -5 -12
-10 -14 -19 -6 -9 7 -16 6 -24 -4 -9 -10 -8 -34 3 -97 8 -46 13 -85 11 -88 -2
-2 -6 8 -10 23 -3 14 -7 38 -10 52 -4 17 -16 30 -35 37 -17 6 -30 15 -30 20 0
4 -3 6 -7 4 -5 -2 -32 25 -61 60 -64 76 -55 83 15 11 28 -29 65 -61 83 -72 31
-18 32 -18 27 0 -3 11 -13 48 -23 84 -12 46 -25 72 -44 87 -38 31 -75 123 -50
123 6 0 10 -13 10 -30 0 -22 7 -33 29 -45 16 -8 31 -18 33 -22 3 -5 3 -2 1 5
-4 17 35 107 43 100 3 -4 1 -15 -5 -27 -6 -12 -15 -30 -20 -40 -6 -10 -7 -31
-3 -46 7 -25 9 -24 20 22 11 43 18 83 21 116 1 5 4 6 9 4 4 -3 7 28 8 69 0 69
-9 94 -22 59 -4 -8 -12 -15 -19 -15 -7 0 -18 -12 -24 -27 -11 -27 -11 -27 -6
7 4 25 2 31 -5 20 -7 -11 -10 -12 -10 -2 0 8 -9 25 -20 39 -11 14 -20 35 -19
47 0 15 2 16 6 6 8 -21 53 -73 53 -62 0 6 3 19 7 29 3 10 3 15 -1 11 -7 -6
-66 52 -66 66 0 10 55 -20 69 -38 10 -12 18 -13 32 -5 10 5 19 14 19 19 0 16
-28 11 -33 -5 -4 -12 -5 -12 -3 1 2 22 -67 94 -76 80 -5 -7 -8 -4 -8 7 0 9 5
17 10 17 6 0 10 7 10 15 0 8 9 24 19 34 19 19 20 19 45 -6 14 -14 26 -31 26
-37 0 -6 5 -4 10 5 6 11 1 31 -15 65 l-24 49 -1 -34 c0 -24 -3 -32 -10 -25 -7
7 -7 20 0 40 5 16 11 55 13 86 2 41 8 62 21 71 10 7 18 28 19 49 1 20 4 34 6
32 2 -2 15 6 29 16 14 11 27 18 30 15 3 -2 -6 -14 -20 -25 -28 -22 -43 -70
-22 -70 7 0 16 5 19 10 3 6 11 10 17 10 6 0 6 -6 -2 -15 -14 -17 -8 -31 9 -21
9 6 11 21 13 100 0 15 -5 32 -12 36 -9 5 -9 9 -1 14 6 4 11 4 11 -1 1 -4 6 1
13 13 21 36 80 104 90 104 5 0 4 -7 -3 -15 -9 -10 -9 -15 -1 -15 6 0 11 5 11
10 0 6 7 10 15 10 8 0 15 8 15 18 0 13 -2 14 -9 4 -7 -11 -11 -11 -23 2 -14
13 -17 12 -27 -12 -9 -20 -14 -23 -21 -12 -9 15 -2 42 10 35 4 -2 19 6 34 20
14 13 26 21 26 18 0 -4 14 6 32 23 17 16 28 23 24 16 -4 -7 -10 -25 -12 -39
-3 -15 -8 -30 -11 -33 -3 -3 -3 5 0 18 7 28 1 28 -13 1 -8 -15 -8 -24 0 -34 8
-10 4 -21 -20 -46 -21 -24 -33 -30 -38 -22 -10 16 -24 6 -56 -41 -36 -53 -35
-69 3 -50 16 8 34 21 41 29 8 9 30 15 56 15 41 0 44 2 44 26 0 26 -8 26 -42
-4 -9 -7 -22 -11 -28 -7 -8 5 -1 14 19 26 17 10 33 31 37 46 4 15 13 37 20 48
7 11 16 37 19 58 9 45 -1 47 -64 12z m-98 -136 c-23 -8 -25 -6 -17 15 5 13 9
14 21 4 13 -10 13 -13 -4 -19z m47 -45 c0 -8 -5 -12 -10 -9 -6 4 -8 11 -5 16
9 14 15 11 15 -7z m-100 -18 c0 -8 -5 -18 -10 -21 -6 -4 -8 -9 -6 -13 2 -4 -7
-15 -20 -25 -13 -10 -24 -13 -24 -7 0 5 4 10 9 10 5 0 7 8 4 19 -4 18 20 51
38 51 5 0 9 -6 9 -14z m0 -101 c0 -8 -4 -15 -10 -15 -5 0 -7 7 -4 15 4 8 8 15
10 15 2 0 4 -7 4 -15z m-130 -222 c-7 -21 -17 -42 -22 -48 -7 -7 -9 -5 -5 5 3
8 11 32 18 53 7 20 14 35 17 33 2 -3 -1 -22 -8 -43z m-175 -183 c3 -5 1 -10
-4 -10 -6 0 -11 5 -11 10 0 6 2 10 4 10 3 0 8 -4 11 -10z m20 -48 c0 -10 19
-36 40 -59 44 -46 112 -163 95 -163 -6 0 -15 11 -20 25 -5 14 -15 25 -22 25
-9 0 -10 -3 -2 -8 6 -4 11 -14 11 -22 0 -9 8 -28 18 -43 l18 -28 13 37 c7 21
25 49 39 63 l26 26 -12 -30 c-7 -16 -20 -37 -29 -46 -10 -8 -21 -30 -25 -47
-3 -18 -10 -32 -14 -32 -12 0 -42 36 -36 42 3 3 0 18 -7 33 -11 24 -13 25 -20
8 -6 -12 -7 -8 -4 14 4 23 -1 38 -15 55 -16 18 -19 19 -15 5 3 -10 6 -23 6
-28 0 -6 5 -7 12 -3 8 5 9 2 5 -10 -4 -10 -7 -27 -7 -39 -1 -18 -4 -15 -15 11
-8 18 -18 31 -22 29 -5 -3 -17 1 -28 9 -10 8 -14 14 -9 14 6 0 15 -5 22 -12
16 -16 15 -3 -3 31 -8 16 -19 46 -24 67 -5 22 -12 47 -16 58 -7 15 -5 17 13
12 17 -6 20 -3 15 16 -3 13 -2 20 2 15 5 -4 9 -15 10 -25z m358 -207 c-6 -18
-19 -19 -29 -4 -7 12 15 31 28 23 4 -3 5 -11 1 -19z m42 -35 c-3 -5 -1 -11 5
-15 5 -3 10 -26 10 -49 0 -33 -4 -45 -17 -50 -10 -3 -23 -8 -29 -11 -6 -3 -17
8 -24 24 -7 17 -19 36 -28 43 -10 8 -5 -6 11 -33 22 -39 24 -49 13 -58 -19
-16 -46 28 -46 76 1 32 6 41 36 60 20 13 41 20 52 16 15 -6 15 -5 4 10 -8 9
-10 22 -6 28 5 9 10 5 16 -10 4 -13 6 -27 3 -31z m349 -58 c2 -4 -10 -27 -29
-50 -18 -23 -36 -53 -39 -66 -9 -38 -157 -138 -171 -116 -8 13 63 136 97 167
23 21 114 73 129 73 4 0 10 -4 13 -8z m-833 -19 c16 -10 29 -21 29 -25 0 -4 8
-5 18 -1 9 3 14 3 10 -1 -4 -5 5 -19 20 -32 15 -13 22 -24 15 -24 -6 0 -15 5
-18 10 -3 6 -12 10 -18 10 -7 -1 -1 -10 12 -20 13 -11 19 -20 14 -20 -12 0
-41 31 -42 45 -1 6 -7 10 -13 10 -7 0 -13 6 -13 13 0 6 -4 12 -9 11 -5 0 -12
3 -15 9 -3 5 -15 14 -26 20 -11 7 -14 12 -7 12 8 0 27 -8 43 -17z m204 -93
c10 -30 21 -48 27 -44 7 4 8 2 4 -5 -4 -6 -2 -19 6 -28 9 -12 10 -15 0 -9 -15
9 -47 70 -56 109 -11 45 1 31 19 -23z m6 -73 l22 -32 -31 29 c-18 17 -32 34
-32 38 0 15 18 0 41 -35z m108 -77 c0 -8 -6 0 -14 19 -8 18 -15 38 -14 45 1
15 28 -46 28 -64z m85 -35 c-4 -8 -8 -15 -10 -15 -2 0 -4 7 -4 15 0 8 4 15 10
15 5 0 7 -7 4 -15z m-134 -5 c0 -5 -2 -10 -4 -10 -3 0 -8 5 -11 10 -3 6 -1 10
4 10 6 0 11 -4 11 -10z m1 -116 c7 -9 8 -14 1 -14 -6 0 -13 -13 -17 -30 -4
-16 -10 -32 -15 -35 -12 -8 -42 25 -36 41 3 7 1 14 -3 16 -5 2 -5 13 -1 24 7
16 15 20 34 17 14 -3 31 -11 37 -19z"/>
<path d="M1866 1507 c3 -10 9 -15 12 -12 3 3 0 11 -7 18 -10 9 -11 8 -5 -6z"/>
<path d="M1965 1320 c3 -5 8 -10 11 -10 2 0 4 5 4 10 0 6 -5 10 -11 10 -5 0
-7 -4 -4 -10z"/>
<path d="M2519 1223 c-30 -32 -76 -77 -102 -101 -26 -23 -47 -46 -47 -51 0
-12 165 145 192 182 30 41 18 33 -43 -30z"/>
<path d="M2385 2359 c-17 -6 -15 -8 10 -9 l30 -1 -27 -15 c-16 -8 -28 -17 -28
-20 0 -2 9 0 19 6 31 16 34 12 11 -20 -12 -16 -27 -30 -34 -30 -8 0 -19 -7
-27 -16 -11 -13 -7 -13 24 2 30 14 77 69 77 89 0 12 -38 21 -55 14z"/>
<path d="M2266 2273 c-6 -14 -5 -15 5 -6 7 7 10 15 7 18 -3 3 -9 -2 -12 -12z"/>
<path d="M570 2163 c0 -19 5 -23 33 -23 61 0 107 -19 127 -53 19 -31 20 -56
20 -680 0 -732 3 -703 -72 -737 -24 -11 -58 -20 -75 -20 -27 0 -33 -4 -33 -22
l0 -23 220 0 c217 0 220 0 220 21 0 18 -8 22 -56 28 -74 9 -107 27 -130 73
-18 36 -19 74 -20 678 -2 410 1 633 7 620 6 -11 21 -25 34 -31 24 -12 24 -11
11 15 -17 31 -86 99 -86 84 0 -6 7 -16 15 -23 15 -13 12 -30 -6 -30 -6 0 -7 5
-4 10 4 6 1 18 -6 26 -24 29 4 34 73 14 45 -14 71 -28 82 -45 19 -29 20 -39 4
-29 -7 5 -8 2 -3 -7 4 -8 -5 -2 -22 14 -29 27 -50 36 -38 17 3 -5 8 -20 10
-32 3 -13 13 -28 22 -35 68 -46 54 -44 -49 8 -10 5 -18 5 -18 1 0 -5 23 -64
50 -132 28 -68 50 -125 50 -127 0 -2 -6 -1 -12 2 -7 4 -5 0 5 -8 17 -14 24
-47 9 -47 -4 0 -13 5 -20 12 -6 6 -15 9 -18 5 -4 -3 5 -12 20 -18 14 -7 26
-16 26 -21 0 -10 27 -11 34 0 7 12 -14 83 -31 103 -21 25 -15 35 7 11 20 -22
79 -57 85 -50 10 11 15 68 6 68 -6 0 -11 -9 -11 -19 0 -11 -5 -23 -10 -26 -7
-4 -9 2 -5 18 6 20 2 27 -17 32 -12 4 -36 18 -51 31 l-28 24 33 -6 c18 -3 44
-7 56 -10 13 -3 21 -1 19 3 -3 5 1 35 9 68 7 33 12 46 11 28 -2 -21 2 -34 11
-38 11 -4 13 -17 8 -58 -6 -45 -4 -57 13 -78 20 -24 20 -24 21 -2 0 12 5 25
10 28 13 8 13 -1 0 -44 -13 -45 -4 -53 9 -10 10 32 10 31 4 -11 -9 -65 -6
-141 6 -153 8 -8 11 -5 11 10 0 11 8 31 19 44 18 22 18 25 0 76 -10 30 -16 69
-14 88 3 20 0 35 -5 35 -6 0 -10 -5 -10 -12 0 -22 -17 6 -35 59 -10 29 -23 49
-28 46 -6 -4 -8 0 -4 10 3 8 -16 73 -44 144 -27 70 -49 128 -49 128 0 0 -90 0
-200 0 l-200 0 0 -22z m361 -12 c19 -1 29 -8 34 -23 11 -38 14 -82 5 -98 -5
-9 -3 -25 6 -40 13 -24 13 -22 15 35 l2 60 7 -75 c4 -41 10 -95 14 -120 6 -40
5 -43 -7 -27 -8 9 -13 29 -11 45 4 26 3 26 -4 2 -11 -35 -56 -56 -89 -41 -32
15 -25 33 18 48 34 11 40 31 15 45 -7 4 -24 17 -37 28 -23 21 -23 21 16 -1 22
-12 35 -17 29 -10 -9 10 -8 19 2 39 18 35 18 46 -1 38 -8 -3 -15 -1 -15 5 0
16 -91 50 -140 52 -49 2 -84 22 -56 33 8 3 31 4 51 1 19 -3 38 -1 41 4 3 5 22
7 42 5 20 -3 49 -5 63 -5z m96 -193 c-3 -8 -6 -5 -6 6 -1 11 2 17 5 13 3 -3 4
-12 1 -19z m-129 -17 c11 -7 11 -9 -1 -14 -16 -6 -27 0 -27 15 0 10 11 10 28
-1z m102 -176 c0 -8 -2 -15 -4 -15 -2 0 -6 7 -10 15 -3 8 -1 15 4 15 6 0 10
-7 10 -15z m147 -127 c-3 -8 -6 -5 -6 6 -1 11 2 17 5 13 3 -3 4 -12 1 -19z
m-347 -934 c0 -13 6 -24 13 -24 8 0 22 -9 32 -20 10 -11 23 -17 29 -13 6 3 8
2 4 -2 -12 -12 -58 -15 -55 -3 1 6 -9 12 -23 14 -19 3 -22 2 -10 -6 8 -5 13
-10 10 -11 -3 0 -13 -2 -22 -4 -10 -2 -18 2 -18 8 0 8 -3 7 -9 -2 -7 -11 -12
-11 -32 0 l-24 14 23 3 c12 2 20 8 16 13 -3 6 4 13 16 16 17 4 19 8 8 15 -10
7 -10 11 0 15 6 2 12 19 12 36 l0 32 15 -29 c8 -15 15 -39 15 -52z m-115 -64
c3 -5 1 -10 -4 -10 -6 0 -11 5 -11 10 0 6 2 10 4 10 3 0 8 -4 11 -10z"/>
<path d="M930 2080 c0 -5 5 -10 11 -10 5 0 7 5 4 10 -3 6 -8 10 -11 10 -2 0
-4 -4 -4 -10z"/>
<path d="M961 1975 c1 -19 18 -51 18 -35 0 8 -4 22 -9 30 -5 8 -9 11 -9 5z"/>
<path d="M957 1913 c-12 -12 -7 -22 8 -17 8 4 15 10 15 15 0 11 -14 12 -23 2z"/>
<path d="M1955 2130 c-3 -5 -1 -10 4 -10 6 0 11 5 11 10 0 6 -2 10 -4 10 -3 0
-8 -4 -11 -10z"/>
<path d="M2239 2093 c-6 -15 -8 -35 -5 -45 2 -12 -4 -22 -17 -29 -12 -6 -30
-21 -39 -33 -9 -11 -22 -22 -27 -22 -6 -1 -18 -2 -26 -3 -8 0 -15 -6 -15 -12
0 -5 5 -7 12 -3 7 4 8 3 4 -4 -4 -7 -14 -12 -22 -12 -8 0 -14 -4 -14 -10 0 -5
4 -10 10 -10 8 0 26 -66 22 -82 -1 -4 4 -5 11 -2 9 3 14 25 15 61 2 68 13 82
41 54 55 -55 172 3 218 107 12 29 23 55 23 57 0 3 -16 5 -34 5 -32 0 -109 -33
-142 -61 -16 -13 -17 -5 -5 39 12 39 5 43 -10 5z m137 -36 c-33 -34 -43 -40
-53 -29 -9 11 -13 10 -21 -4 -5 -10 -21 -18 -35 -18 -20 -1 -23 1 -15 11 6 7
14 10 19 7 5 -3 6 1 4 9 -4 9 6 17 30 24 33 10 35 10 30 -7 -4 -12 6 -7 30 16
52 49 60 42 11 -9z m4 -27 c0 -5 -5 -10 -11 -10 -5 0 -7 5 -4 10 3 6 8 10 11
10 2 0 4 -4 4 -10z m-56 -37 c4 -10 4 -14 0 -11 -3 4 -22 1 -41 -7 -40 -17
-107 -20 -98 -5 3 6 26 10 51 10 32 0 43 3 38 12 -4 6 -3 8 2 5 6 -3 16 -2 24
4 8 5 16 9 16 9 1 0 5 -8 8 -17z m-38 -38 c-11 -8 -25 -15 -30 -15 -6 1 0 7
14 15 32 19 40 18 16 0z"/>
<path d="M1083 2045 c-21 -49 -21 -59 -10 -88 l14 -32 10 35 c14 45 24 140 15
140 -4 0 -17 -25 -29 -55z m12 -63 c-6 -32 -9 -34 -15 -17 -12 29 -11 42 1 25
9 -12 10 -10 6 8 -3 13 -3 31 1 40 10 27 15 -13 7 -56z"/>
<path d="M819 2077 c7 -10 24 -17 37 -17 13 0 32 -10 44 -22 11 -12 20 -17 20
-11 0 15 -34 43 -54 43 -9 0 -27 5 -39 12 -20 10 -21 10 -8 -5z"/>
<path d="M2181 2064 c-21 -27 -20 -44 2 -44 9 0 8 3 -1 8 -10 7 -8 15 8 35 12
15 19 27 16 27 -2 0 -14 -12 -25 -26z"/>
<path d="M2000 2049 c0 -5 5 -7 10 -4 6 3 10 8 10 11 0 2 -4 4 -10 4 -5 0 -10
-5 -10 -11z"/>
<path d="M1938 2028 c-3 -7 -5 -15 -5 -18 0 -3 -5 -15 -12 -28 -12 -23 -7 -62
8 -62 5 0 11 26 14 58 5 59 3 73 -5 50z"/>
<path d="M2073 1968 c-15 -7 -22 -21 -25 -49 l-3 -39 22 28 c21 25 24 33 22
48 0 4 5 11 13 15 18 12 -2 10 -29 -3z"/>
<path d="M1688 1963 c7 -3 16 -2 19 1 4 3 -2 6 -13 5 -11 0 -14 -3 -6 -6z"/>
<path d="M1750 1943 c35 -19 52 -21 34 -4 -5 5 -22 13 -39 16 -30 7 -30 7 5
-12z"/>
<path d="M1771 1892 c31 -34 35 -36 43 -20 6 13 5 23 -3 31 -11 10 -12 7 -6
-13 7 -24 6 -23 -23 8 -42 45 -52 40 -11 -6z"/>
<path d="M2167 1903 c-5 -26 -4 -26 9 -8 16 22 18 35 5 35 -5 0 -11 -12 -14
-27z"/>
<path d="M2060 1875 c-15 -25 -19 -39 -12 -44 6 -4 17 -22 25 -40 l14 -33 10
29 c8 21 7 43 -1 78 l-13 48 -23 -38z"/>
<path d="M1893 1795 c3 -44 10 -91 16 -105 11 -27 12 -34 -4 119 -9 86 -17 75
-12 -14z"/>
<path d="M2172 1848 c-22 -22 -12 -29 18 -13 17 9 30 18 30 20 0 10 -36 5 -48
-7z"/>
<path d="M1036 1813 c-6 -14 -5 -15 5 -6 7 7 10 15 7 18 -3 3 -9 -2 -12 -12z"/>
<path d="M2129 1808 c-19 -15 -32 -48 -19 -48 5 0 12 5 15 11 4 6 13 8 21 5
17 -7 44 3 44 15 0 6 -8 5 -19 -1 -16 -8 -20 -6 -23 11 -3 17 -5 18 -19 7z"/>
<path d="M1313 1754 c-31 -48 -52 -114 -53 -164 0 -22 3 -21 24 15 27 46 70
169 64 186 -2 7 -18 -10 -35 -37z"/>
<path d="M2115 1748 c-20 -11 -35 -28 -35 -39 0 -4 16 1 35 10 19 9 34 22 35
29 0 15 -9 15 -35 0z"/>
<path d="M1983 1727 c-10 -21 -8 -26 12 -35 21 -10 22 -8 21 21 -2 38 -19 45
-33 14z"/>
<path d="M1063 1668 c23 -31 34 -31 18 0 -8 15 -8 22 2 25 6 2 0 4 -14 3 l-26
-1 20 -27z"/>
<path d="M1180 1677 c0 -3 5 -18 12 -34 15 -37 18 -50 23 -98 l5 -40 -14 30
c-9 17 -16 44 -16 60 -1 22 -5 15 -16 -29 -14 -60 -12 -86 9 -108 7 -7 19 -33
28 -57 19 -54 31 -60 45 -22 9 22 8 36 -2 61 -8 18 -14 53 -14 79 0 54 -24
134 -46 152 -8 6 -14 9 -14 6z m62 -259 c3 -7 2 -24 -2 -38 -6 -22 -7 -21 -11
13 -5 35 4 51 13 25z"/>
<path d="M2083 1638 c-7 -13 -9 -18 -11 -50 -1 -11 -10 -18 -22 -18 -11 0 -20
-4 -20 -9 0 -5 -3 -17 -6 -26 -6 -13 -3 -14 19 -4 27 12 47 47 47 84 0 13 6
26 13 28 9 4 9 6 0 6 -6 1 -15 -5 -20 -11z"/>
<path d="M1003 1624 c9 -12 17 -26 17 -32 0 -10 20 -17 42 -13 18 2 83 -105
69 -113 -14 -9 -67 39 -81 74 -9 22 -19 30 -37 30 -20 0 -24 -4 -18 -17 4 -10
25 -65 47 -122 21 -58 44 -113 49 -123 8 -16 6 -17 -21 -12 -18 4 -30 2 -30
-4 0 -11 66 -72 78 -72 4 0 23 -40 41 -90 18 -49 38 -90 43 -90 5 0 23 -9 40
-21 16 -12 31 -19 33 -17 2 2 -4 37 -15 78 -10 41 -20 86 -22 100 -3 22 -7 25
-38 22 -30 -3 -43 4 -79 37 -37 34 -41 41 -23 41 11 0 23 -8 27 -19 6 -21 71
-59 81 -48 4 4 1 7 -7 7 -26 0 -83 67 -85 100 -1 19 3 30 11 30 7 0 18 7 25
15 7 9 15 13 18 10 3 -3 -3 -15 -14 -27 -19 -21 -19 -21 1 -16 11 3 26 -1 33
-9 11 -11 10 -13 -10 -9 -13 2 -27 6 -33 8 -5 1 -12 0 -15 -4 -3 -4 22 -29 55
-55 57 -46 61 -52 70 -107 l10 -58 25 38 c14 21 36 44 50 51 14 7 20 13 13 13
-6 0 -16 14 -22 32 l-11 32 -29 -28 c-17 -16 -34 -25 -41 -21 -7 4 -8 10 -4
14 5 3 19 25 32 49 17 32 20 47 13 61 -8 14 -6 22 8 35 20 19 65 98 76 136 7
22 3 21 -35 -15 -45 -42 -70 -89 -70 -128 0 -14 -7 -31 -16 -38 -12 -9 -15
-24 -11 -51 3 -21 1 -38 -4 -38 -5 0 -9 13 -9 29 0 16 -15 51 -33 79 -31 45
-35 48 -46 31 -17 -28 -31 -23 -31 12 0 19 -4 28 -11 24 -6 -4 -5 2 3 14 19
31 26 26 22 -16 -4 -36 -4 -37 9 -15 10 17 11 36 3 82 -5 32 -13 57 -17 55 -9
-6 -19 20 -19 53 0 20 -3 23 -12 14 -18 -18 -38 -15 -77 15 -24 18 -30 20 -18
7z m92 -224 c14 -27 16 -70 4 -70 -10 0 -19 27 -19 56 0 14 -4 23 -9 20 -9 -6
-21 15 -21 36 0 16 29 -12 45 -42z m192 -22 c-3 -8 -6 -5 -6 6 -1 11 2 17 5
13 3 -3 4 -12 1 -19z m18 -174 c14 -6 13 -8 -5 -21 -24 -17 -35 -12 -27 12 7
17 9 17 32 9z m-90 -38 c17 -17 31 -81 15 -71 -5 3 -10 1 -10 -5 0 -6 7 -13
15 -16 8 -4 15 -12 15 -20 0 -12 -4 -12 -20 -2 -21 13 -62 106 -53 121 7 11
23 8 38 -7z"/>
<path d="M942 1603 c15 -15 30 -24 33 -21 8 7 -35 48 -49 48 -6 0 2 -12 16
-27z"/>
<path d="M2251 1604 c0 -11 3 -14 6 -6 3 7 2 16 -1 19 -3 4 -6 -2 -5 -13z"/>
<path d="M1076 1527 c3 -10 9 -15 12 -12 3 3 0 11 -7 18 -10 9 -11 8 -5 -6z"/>
<path d="M956 1472 c-2 -4 4 -8 14 -8 10 0 16 4 14 8 -3 4 -9 8 -14 8 -5 0
-11 -4 -14 -8z"/>
<path d="M1592 1446 c7 -8 15 -12 17 -11 5 6 -10 25 -20 25 -5 0 -4 -6 3 -14z"/>
<path d="M1452 1380 c0 -14 2 -19 5 -12 2 6 2 18 0 25 -3 6 -5 1 -5 -13z"/>
<path d="M2417 1368 c-37 -61 -56 -98 -49 -98 4 0 22 27 40 60 32 57 38 86 9
38z"/>
<path d="M1332 1356 c-16 -22 -18 -34 -12 -81 1 -13 30 41 40 77 10 34 -2 36
-28 4z"/>
<path d="M1516 1333 c-6 -14 -5 -15 5 -6 7 7 10 15 7 18 -3 3 -9 -2 -12 -12z"/>
<path d="M1420 1331 c0 -6 4 -13 10 -16 6 -3 7 1 4 9 -7 18 -14 21 -14 7z"/>
<path d="M2350 1241 c-12 -24 -13 -34 -1 -27 9 6 22 46 15 46 -2 0 -8 -9 -14
-19z"/>
<path d="M1960 974 c0 -7 52 -25 57 -20 2 2 -10 8 -26 14 -17 6 -31 9 -31 6z"/>
<path d="M2107 938 c-9 -31 -2 -33 11 -3 6 14 8 25 3 25 -5 0 -11 -10 -14 -22z"/>
<path d="M1990 930 c20 -13 33 -13 25 0 -3 6 -14 10 -23 10 -15 0 -15 -2 -2
-10z"/>
<path d="M1892 800 c30 -45 38 -67 34 -85 -8 -31 -52 -54 -117 -62 -41 -5 -49
-9 -49 -27 0 -21 2 -21 285 -21 283 0 285 0 285 21 0 18 -8 22 -48 27 -61 7
-100 25 -108 49 -6 19 -8 18 -34 -7 -16 -15 -31 -39 -35 -53 l-6 -25 -47 44
c-25 24 -41 37 -34 28 6 -9 9 -19 5 -22 -3 -4 -2 -7 3 -7 6 0 19 -7 30 -15 18
-14 18 -14 -3 -8 -29 7 -113 81 -113 99 0 20 12 18 38 -6 12 -12 22 -18 22
-15 0 4 -24 28 -52 56 -29 27 -45 46 -35 43 9 -3 17 -4 17 -1 0 6 -64 47 -73
47 -3 0 13 -27 35 -60z m72 -143 c-2 -13 3 -16 20 -12 18 5 19 5 3 -5 -19 -12
-41 -4 -31 12 4 5 -5 2 -20 -7 -28 -18 -36 -6 -13 20 16 19 42 14 41 -8z m216
-9 c-1 -21 -2 -21 -11 -5 -7 12 -17 16 -31 11 -14 -4 -18 -2 -14 5 4 6 18 11
32 11 18 0 24 -5 24 -22z m35 -8 c3 -5 2 -10 -4 -10 -5 0 -13 5 -16 10 -3 6
-2 10 4 10 5 0 13 -4 16 -10z"/>
</g>
</svg>
